<?xml version="1.0" encoding="utf-8"?>
<!-- Generator: Adobe Illustrator 30.7.0, SVG Export Plug-In . SVG Version: 9.03 Build 0)  -->
<svg version="1.0" id="Layer_1" xmlns="http://www.w3.org/2000/svg" xmlns:xlink="http://www.w3.org/1999/xlink" x="0px" y="0px"
	 viewBox="0 0 1211.72 336.67" style="enable-background:new 0 0 1211.72 336.67;" xml:space="preserve">
<style type="text/css">
	.st0{clip-path:url(#SVGID_00000040574577455685733870000006173367609075248283_);}
	.st1{fill:#179389;}
	.st2{clip-path:url(#SVGID_00000163047532988532214000000018396095523080947603_);}
	.st3{fill:#1B1B1B;}
</style>
<g>
	<g transform="matrix(1, 0, 0, 1, 322, 985)">
		<g>
			<defs>
				<rect id="SVGID_1_" x="-290" y="-947" width="368" height="306.67"/>
			</defs>
			<clipPath id="SVGID_00000147214054579338465480000001589430334648335528_">
				<use xlink:href="#SVGID_1_"  style="overflow:visible;"/>
			</clipPath>
			<g style="clip-path:url(#SVGID_00000147214054579338465480000001589430334648335528_);">
				<g>
					<g transform="translate(2.833776, 165.157373)">
						<g>
							<path class="st1" d="M-274.41-891.95v-210.04h43.23v210.04H-274.41z"/>
						</g>
					</g>
				</g>
				<g>
					<g transform="translate(42.583085, 165.157373)">
						<g>
							<path class="st1" d="M-252.6-907.45c-11.72-12.79-17.58-28.46-17.58-47.02c0-18.57,5.86-34.28,17.58-47.15
								c11.72-12.86,26.61-19.29,44.69-19.29c16.61,0,30.28,5.22,41.02,15.65v-11.98h43.23v125.29h-42.73v-14.17h-0.5
								c-10.74,11.89-24.41,17.83-41.02,17.83C-225.98-888.28-240.88-894.67-252.6-907.45z M-215.85-975.72
								c-5.61,5.54-8.42,12.62-8.42,21.25s2.68,15.67,8.04,21.12c5.38,5.46,12.46,8.19,21.25,8.19c8.47,0,15.43-2.76,20.88-8.29
								c5.46-5.54,8.19-12.55,8.19-21.02c0-8.62-2.81-15.71-8.44-21.25c-5.61-5.54-12.49-8.31-20.63-8.31
								C-203.28-984.03-210.24-981.26-215.85-975.72z"/>
						</g>
					</g>
				</g>
				<g>
					<g transform="translate(153.038543, 165.157373)">
						<g>
							<path class="st1" d="M-95.38-1001.61c11.72,12.86,17.58,28.58,17.58,47.15c0,18.56-5.86,34.23-17.58,47.02
								c-11.72,12.78-26.62,19.17-44.69,19.17c-16.61,0-30.29-5.94-41.04-17.83h-0.48v14.17h-42.75v-210.04h43.23v96.73
								c10.75-10.43,24.43-15.65,41.04-15.65C-122-1020.91-107.11-1014.47-95.38-1001.61z M-131.78-933.34
								c5.37-5.46,8.06-12.5,8.06-21.12s-2.81-15.71-8.44-21.25c-5.61-5.54-12.57-8.31-20.88-8.31c-8.14,0-15.02,2.77-20.65,8.31
								c-5.61,5.54-8.42,12.62-8.42,21.25c0,8.47,2.73,15.48,8.19,21.02c5.46,5.53,12.42,8.29,20.88,8.29
								C-144.23-925.16-137.14-927.89-131.78-933.34z"/>
						</g>
					</g>
				</g>
			</g>
		</g>
	</g>
	<g transform="matrix(1, 0, 0, 1, 612, 1008)">
		<g>
			<defs>
				
					<rect id="SVGID_00000023268491475049428430000009765069118528530584_" x="-201.33" y="-949.33" width="297.33" height="278.67"/>
			</defs>
			<clipPath id="SVGID_00000065069362943917364100000008066865771693848242_">
				<use xlink:href="#SVGID_00000023268491475049428430000009765069118528530584_"  style="overflow:visible;"/>
			</clipPath>
			<g style="clip-path:url(#SVGID_00000065069362943917364100000008066865771693848242_);">
				<g>
					<g transform="translate(2.021361, 148.873845)">
						<g>
							<path class="st3" d="M-162.18-930.71c-1.29,4.43-2.27,7.99-2.92,10.67c-0.64,2.67-0.96,4.93-0.96,6.77
								c0,1.29,0.32,2.27,0.96,2.92c0.65,0.64,1.25,0.96,1.79,0.96c2.22,0,6.01-2.67,11.35-8.02c5.34-5.36,8.67-9.15,9.96-11.35
								l4.44,2.5c-5.91,8.11-12.36,15.12-19.38,21.02c-7.02,5.9-13.56,8.85-19.65,8.85c-7.39,0-11.08-4.33-11.08-13
								c0-3.5,0.73-7.83,2.21-13c1.48-5.17,2.51-8.58,3.06-10.25l39.29-136.73c1.11-4.23,1.67-7.55,1.67-9.96
								c0-2.4-0.83-4.34-2.5-5.81c-1.66-1.47-3.77-2.21-6.35-2.21c-3.52,0-6.66,0.28-9.42,0.83v-5.27l40.69-6.35h4.71l-44.29,154.98
								C-160.45-936.51-161.64-932.36-162.18-930.71z"/>
						</g>
					</g>
				</g>
				<g>
					<g transform="translate(43.742581, 148.873845)">
						<g>
							<path class="st3" d="M-120.88-1081.54c3.88,0,7.19,1.39,9.96,4.15c2.76,2.77,4.15,5.99,4.15,9.69c0,3.88-1.39,7.2-4.15,9.98
								c-2.77,2.77-6.08,4.15-9.96,4.15c-3.7,0-6.93-1.38-9.69-4.15c-2.77-2.78-4.15-6.1-4.15-9.98c0-3.69,1.38-6.92,4.15-9.69
								C-127.8-1080.16-124.58-1081.54-120.88-1081.54z M-148-924.33c-1.47,4.79-2.21,8.11-2.21,9.96c0,2.95,1.56,4.42,4.69,4.42
								c2.22,0,5.31-1.7,9.27-5.1c3.97-3.42,8.08-8.44,12.33-15.08l4.42,2.75c-6.08,9.42-12.91,16.94-20.48,22.56
								c-7.57,5.62-14.49,8.44-20.75,8.44c-3.7,0-6.52-1.2-8.46-3.58c-1.93-2.4-2.9-5.63-2.9-9.69c0-2.96,0.55-6.38,1.67-10.25
								l22.15-76.1c1.29-4.61,1.94-7.84,1.94-9.69c0-2.4-0.83-4.53-2.5-6.38c-1.67-1.84-4.16-2.77-7.48-2.77
								c-1.29,0-4.79,0.47-10.5,1.4l1.38-4.71l42.06-8.02h4.71L-148-924.33z"/>
						</g>
					</g>
				</g>
				<g>
					<g transform="translate(85.463801, 148.873845)">
						<g>
							<path class="st3" d="M-118.05-1042.25c7.94-16.59,16.94-30.06,27-40.4c10.05-10.33,21.26-15.5,33.62-15.5
								c6.08,0,11.38,1.39,15.9,4.15c4.53,2.77,6.79,6.64,6.79,11.62c0,3.5-1.16,6.45-3.46,8.85c-2.31,2.41-5.03,3.6-8.17,3.6
								c-2.39,0-4.37-0.82-5.94-2.48c-1.57-1.67-2.35-3.7-2.35-6.1c0-1.29,0.69-3,2.06-5.12c1.39-2.12,2.08-3.73,2.08-4.83
								c0-1.29-0.65-2.4-1.94-3.31c-1.29-0.93-2.86-1.4-4.71-1.4c-7.75,0-14.4,3.14-19.94,9.42c-5.53,6.27-10.19,14.2-13.98,23.79
								c-3.78,9.6-7.7,21.87-11.75,36.81h19.65l-2.48,8.58h-19.65l-14.13,55.62c-4.79,19-10.15,36.76-16.06,53.27
								c-5.91,16.51-13.97,31.51-24.21,44.98c-10.24,13.47-22.28,20.21-36.12,20.21c-5.71,0-10.36-1.25-13.96-3.75
								c-3.61-2.49-5.42-5.76-5.42-9.81c0-2.96,1.2-5.64,3.6-8.04c2.41-2.39,5.27-3.58,8.58-3.58c2.77,0,4.93,0.78,6.5,2.35
								c1.57,1.57,2.35,3.28,2.35,5.12c0,1.47-0.96,3.22-2.9,5.25c-1.94,2.03-2.92,3.41-2.92,4.15c0,0.75,0.42,1.35,1.25,1.81
								c0.83,0.46,1.8,0.69,2.9,0.69c7.02,0,13.29-2.58,18.83-7.75c5.53-5.17,9.86-12.08,13-20.75
								c3.69-10.53,7.48-23.08,11.35-37.65l26.02-102.12h-24.92l2.5-8.58h4.15c5.34,0,9.59-0.69,12.73-2.06
								c3.14-1.39,5.67-3.38,7.6-5.96C-122.61-1033.75-120.44-1037.44-118.05-1042.25z"/>
						</g>
					</g>
				</g>
				<g>
					<g transform="translate(131.128601, 148.873845)">
						<g>
							<path class="st3" d="M-67.96-1026.19c7.75,0,14.26,1.94,19.52,5.81c5.26,3.88,7.9,8.85,7.9,14.94
								c0,5.91-2.77,12.64-8.31,20.21c-5.54,7.57-14.54,14.27-27,20.08c-12.45,5.81-28.27,8.98-47.46,9.52
								c-1.1,3.7-1.65,8.22-1.65,13.56c0,11.27,3.04,19.43,9.13,24.5c6.08,5.07,12.82,7.6,20.21,7.6c12.36,0,24.91-6.18,37.65-18.54
								l3.58,3.33c-19.74,19.18-38.83,28.77-57.29,28.77c-7.56,0-14.16-1.89-19.79-5.67c-5.62-3.78-9.87-8.71-12.73-14.79
								c-2.86-6.09-4.29-12.38-4.29-18.83c0-12.92,3.73-26.48,11.21-40.69c7.47-14.21,17.44-26.06,29.9-35.56
								S-81.79-1026.19-67.96-1026.19z M-121.64-960.88c12.54-0.92,22.69-3.04,30.44-6.38c7.57-3.32,13.71-7.6,18.42-12.85
								c4.71-5.26,8.07-10.43,10.1-15.5c2.03-5.08,3.04-9.28,3.04-12.6c0-3.14-1.16-6.04-3.46-8.71c-2.31-2.68-5.58-4.02-9.83-4.02
								c-7.38,0-14.53,3.42-21.46,10.25c-6.92,6.82-12.82,14.94-17.71,24.35C-116.99-976.93-120.18-968.44-121.64-960.88z"/>
						</g>
					</g>
				</g>
			</g>
		</g>
	</g>
	<g>
		<g transform="translate(841.846785, 1149.310081)">
			<g>
				<path class="st1" d="M-102.07-892.23v-210.04h43.23v97.94h0.5c11.23-11.23,23.2-16.85,35.9-16.85c6.19,0,12.34,0.82,18.44,2.46
					c6.11,1.62,11.97,4.15,17.58,7.56c5.62,3.42,10.19,8.27,13.69,14.54c3.5,6.27,5.25,13.55,5.25,21.85v82.54h-43.23v-70.83
					c0-6.51-2.08-12.21-6.23-17.08c-4.16-4.89-9.57-7.33-16.25-7.33c-6.52,0-12.42,2.53-17.71,7.58
					c-5.29,5.04-7.94,10.66-7.94,16.83v70.83H-102.07z"/>
			</g>
		</g>
	</g>
	<g>
		<g transform="translate(948.264104, 1149.310081)">
			<g>
				<path class="st1" d="M-25.81-1017.52v59.6c0,12.36,1.86,21.16,5.6,26.38c3.75,5.21,10.1,7.81,19.06,7.81s15.3-2.6,19.04-7.81
					c3.75-5.22,5.62-14.01,5.62-26.38v-59.6h43.23v70.1c0,20.83-5.42,35.85-16.25,45.06c-10.82,9.2-28.04,13.79-51.65,13.79
					c-23.61,0-40.83-4.59-51.67-13.79c-10.82-9.21-16.23-24.23-16.23-45.06v-70.1H-25.81z"/>
			</g>
		</g>
	</g>
	<g>
		<g transform="translate(1053.765598, 1149.310081)">
			<g>
				<path class="st1" d="M97.53-1001.9c11.72,12.86,17.58,28.58,17.58,47.15c0,18.56-5.86,34.23-17.58,47.02
					c-11.72,12.78-26.62,19.17-44.69,19.17c-16.61,0-30.29-5.94-41.04-17.83h-0.48v14.17h-42.75v-210.04H11.8v96.73
					c10.75-10.43,24.43-15.65,41.04-15.65C70.91-1021.19,85.8-1014.76,97.53-1001.9z M61.13-933.63c5.38-5.46,8.06-12.5,8.06-21.12
					s-2.81-15.71-8.44-21.25c-5.61-5.54-12.57-8.31-20.88-8.31c-8.14,0-15.02,2.77-20.65,8.31c-5.61,5.54-8.42,12.62-8.42,21.25
					c0,8.47,2.73,15.48,8.19,21.02c5.46,5.53,12.42,8.29,20.88,8.29C48.68-925.44,55.77-928.17,61.13-933.63z"/>
			</g>
		</g>
	</g>
</g>
</svg>
